<svg xmlns="http://www.w3.org/2000/svg" version="1.1" xmlns:xlink="http://www.w3.org/1999/xlink" xmlns:svgjs="http://svgjs.dev/svgjs" width="1440" height="720" preserveAspectRatio="none" viewBox="0 0 1440 720"><g mask="url(&quot;#SvgjsMask1328&quot;)" fill="none"><rect width="1440" height="720" x="0" y="0" fill="rgba(70, 157, 0, 1)"></rect><path d="M0,543.464C99.084,526.869,174.405,456.583,263.073,409.35C361.316,357.016,489.75,344.902,549.295,250.854C610.158,154.725,593.942,29.505,574.552,-82.608C555.56,-192.42,510.846,-295.237,439.974,-381.24C367.872,-468.735,274.646,-534.27,168.822,-574.955C56.426,-618.167,-73.143,-671.538,-182.175,-620.431C-291.084,-569.382,-313.766,-427.373,-371.336,-321.765C-416.249,-239.376,-450.849,-157.695,-482.569,-69.383C-522.814,42.665,-613.501,151.06,-582.447,265.995C-551.184,381.702,-434.742,456.555,-326.537,508.102C-225.654,556.161,-110.21,561.923,0,543.464" fill="#387e00"></path><path d="M1440 1384.567C1563.69 1370.685 1619.631 1222.9279999999999 1705.005 1132.356 1768.914 1064.556 1839.005 1004.648 1877.917 919.99 1916.8980000000001 835.183 1928.43 743.344 1926.703 650.023 1924.776 545.884 1922.914 437.794 1867.364 349.687 1807.5720000000001 254.851 1718.574 167.68600000000004 1608.664 145.582 1500.705 123.87099999999998 1405.353 212.293 1297.623 235.10899999999998 1177.478 260.555 1022.065 195.37 940.4200000000001 287.111 859.027 378.568 924.159 524.617 931.196 646.845 936.831 744.707 943.601 839.24 977.505 931.2139999999999 1013.733 1029.4940000000001 1058.9940000000001 1123.1399999999999 1133.796 1196.463 1221.109 1282.05 1318.498 1398.203 1440 1384.567" fill="#54bc00"></path></g><defs><mask id="SvgjsMask1328"><rect width="1440" height="720" fill="#ffffff"></rect></mask></defs></svg>